<?xml version="1.0" standalone="no"?>
<!DOCTYPE svg PUBLIC "-//W3C//DTD SVG 20010904//EN"
 "http://www.w3.org/TR/2001/REC-SVG-20010904/DTD/svg10.dtd">
<svg version="1.0" xmlns="http://www.w3.org/2000/svg"
 width="2400.000000pt" height="1600.000000pt" viewBox="0 0 2400.000000 1600.000000"
 preserveAspectRatio="xMidYMid meet">
<g transform="translate(0.000000,1600.000000) scale(0.100000,-0.100000)"
fill="#0d4805" stroke="none">
<path d="M8505 12722 c-19 -22 -25 -23 -143 -21 -118 3 -123 2 -138 -20 -14
-19 -23 -22 -55 -18 -37 5 -40 3 -168 -126 -91 -91 -131 -138 -131 -154 0 -13
-11 -29 -25 -39 -35 -23 -31 -49 15 -94 22 -22 40 -47 40 -57 0 -30 185 -212
209 -206 13 3 24 -2 33 -16 8 -13 23 -21 40 -21 27 0 48 -40 48 -92 0 -20 19
-34 41 -30 25 4 30 -21 34 -172 2 -77 8 -142 14 -145 29 -19 31 -82 31 -1305
l0 -1244 21 -14 c20 -13 21 -17 10 -70 -7 -31 -19 -62 -27 -68 -7 -7 -14 -21
-14 -32 0 -17 -31 -56 -94 -119 -12 -11 -34 -19 -54 -19 -28 0 -36 -5 -45 -30
-6 -16 -17 -30 -25 -30 -19 0 -102 -50 -102 -61 0 -28 72 -5 130 43 39 31 62
35 80 13 19 -22 -12 -52 -61 -60 -23 -4 -43 -15 -49 -25 -6 -10 -20 -22 -32
-25 -51 -16 -118 -51 -118 -62 0 -7 11 -20 25 -29 32 -21 36 -74 5 -74 -13 0
-24 10 -30 25 -12 32 -34 32 -63 -1 -19 -22 -28 -25 -59 -20 -32 5 -41 2 -60
-19 -21 -25 -23 -25 -184 -25 -168 0 -195 7 -181 44 8 21 -48 76 -78 76 -24 0
-25 3 -25 63 0 34 -3 85 -6 112 -5 42 -3 54 15 74 26 30 26 42 2 70 -21 24
-36 192 -26 287 4 41 1 55 -14 73 -22 25 -38 164 -27 225 6 29 2 38 -20 59
-23 21 -26 31 -21 61 6 35 2 39 -109 150 -82 81 -121 112 -134 109 -11 -3 -24
4 -33 17 -24 34 -300 34 -323 1 -12 -16 -26 -21 -62 -21 -37 0 -50 -5 -60 -21
-10 -16 -20 -19 -38 -15 -17 5 -26 2 -30 -9 -4 -8 -17 -15 -30 -15 -19 0 -25
-8 -34 -40 -14 -52 -32 -60 -132 -60 -73 0 -85 -2 -96 -21 -12 -19 -21 -20
-156 -18 l-143 3 -39 -42 c-23 -26 -47 -42 -61 -42 -15 0 -43 -21 -80 -61 -56
-59 -59 -61 -100 -55 -46 6 -65 -7 -57 -41 4 -16 0 -23 -16 -28 -35 -11 -70 2
-70 28 -1 58 -63 67 -68 10 -3 -27 -9 -34 -30 -38 -15 -4 -43 -11 -62 -16 -26
-8 -48 -8 -78 0 -62 17 -83 3 -76 -52 l6 -42 -101 -99 c-70 -69 -101 -106
-101 -122 0 -12 -10 -30 -22 -38 -33 -23 -36 -95 -6 -118 22 -16 23 -18 5 -46
-9 -17 -17 -37 -17 -46 0 -9 -9 -24 -20 -33 -14 -12 -20 -30 -20 -60 0 -32 -5
-46 -20 -55 -12 -8 -20 -24 -20 -39 0 -36 -21 -50 -69 -47 -33 1 -44 -3 -57
-21 -14 -19 -24 -22 -73 -21 -82 2 -81 3 -81 -29 0 -34 -28 -51 -46 -27 -16
23 -17 23 -97 -59 -49 -51 -80 -75 -96 -75 -24 0 -81 -47 -81 -67 0 -7 9 -17
19 -23 23 -12 17 -48 -11 -68 -19 -14 -23 -65 -18 -247 2 -81 22 -106 35 -45
13 59 40 48 51 -22 8 -48 161 -208 199 -208 14 0 30 -9 37 -20 11 -17 24 -20
99 -20 79 0 87 -2 107 -25 19 -22 28 -25 58 -19 55 10 147 -81 142 -141 -3
-37 -1 -41 35 -57 42 -21 45 -28 17 -53 -26 -24 -25 -41 5 -67 20 -17 25 -31
25 -67 0 -36 5 -49 21 -59 18 -12 20 -20 15 -53 -5 -32 -2 -42 14 -56 12 -11
20 -30 20 -50 0 -23 5 -33 15 -33 8 0 15 -8 15 -18 0 -23 19 -42 41 -42 9 0
19 -7 23 -15 3 -9 18 -15 36 -15 18 0 33 -6 36 -15 4 -10 21 -15 55 -15 41 0
51 -4 65 -25 24 -36 94 -36 118 0 32 49 133 29 119 -23 -8 -32 24 -41 44 -13
23 33 47 9 40 -40 -7 -50 46 -112 90 -107 34 4 37 29 6 43 -28 12 -29 20 -3
52 13 16 20 39 19 62 -1 20 1 88 5 151 8 161 7 2275 -2 2388 -9 117 11 171 48
127 11 -14 48 -16 252 -14 132 0 241 -1 244 -4 3 -2 7 -587 9 -1298 3 -712 5
-1314 5 -1338 1 -24 7 -53 15 -65 21 -29 18 -51 -9 -69 -17 -12 -22 -22 -19
-41 4 -19 1 -26 -11 -26 -9 0 -16 8 -16 20 0 31 -45 55 -76 41 -27 -12 -27
-33 2 -78 17 -27 79 -41 106 -24 25 15 38 6 38 -28 0 -33 23 -67 38 -57 6 4
16 26 22 49 6 23 16 51 22 62 22 39 32 2750 10 2958 -11 104 -20 100 206 98
144 -2 205 2 261 14 52 12 76 14 84 6 7 -7 10 -362 10 -1178 -1 -1243 7 -2036
20 -2049 22 -22 62 21 59 63 -3 34 0 44 17 55 20 12 21 22 21 159 0 141 1 146
24 166 22 19 23 27 19 85 -5 61 -4 64 20 75 25 12 25 13 20 100 -3 48 -5 97
-4 108 1 11 4 54 7 95 3 50 10 79 21 87 28 22 62 75 56 90 -3 9 5 25 20 39 16
14 24 30 21 39 -9 23 14 44 49 44 18 1 40 2 51 2 10 0 35 -12 56 -26 21 -14
44 -23 53 -19 10 3 21 -4 32 -20 22 -33 49 -33 77 -1 l22 25 301 0 c289 0 303
-1 320 -20 23 -25 57 -26 79 -1 17 19 36 20 442 20 371 0 426 2 440 15 23 23
289 23 322 0 27 -18 624 -22 630 -4 5 14 332 13 332 0 0 -6 112 -10 315 -10
203 0 315 4 315 10 0 13 43 13 56 0 19 -19 2171 -14 2190 4 20 21 97 21 118 1
9 -9 33 -15 60 -15 37 0 48 -4 62 -24 21 -34 143 -31 158 3 7 17 18 21 57 21
26 0 51 5 54 10 8 13 132 13 140 0 10 -17 286 -12 309 5 28 21 294 21 322 0
15 -12 62 -14 241 -15 l223 0 16 -25 c15 -22 23 -25 80 -25 59 0 65 2 76 25
l11 25 148 0 c147 0 149 0 165 -25 l16 -25 189 0 c174 0 189 1 189 18 0 9 -9
23 -20 30 -49 30 -10 34 269 27 228 -6 279 -10 294 -23 23 -20 22 -36 -5 -55
-18 -12 -20 -18 -11 -27 13 -14 33 -5 33 16 0 8 6 14 14 14 25 0 28 -91 4
-117 l-20 -21 26 -18 c15 -9 26 -24 25 -33 -3 -31 1 -40 21 -46 15 -5 20 -15
20 -40 0 -18 6 -35 13 -37 8 -3 13 -31 14 -84 2 -43 5 -117 8 -164 3 -47 6
-105 8 -130 3 -59 11 -71 47 -64 l28 6 4 -88 c2 -60 -1 -96 -9 -109 -28 -43
-4 -206 31 -213 13 -3 16 5 15 45 -2 53 10 133 21 148 17 23 30 2720 14 2966
-8 121 -1 136 54 111 31 -14 78 -17 270 -18 l233 -2 3 -1519 c2 -835 7 -1537
11 -1561 5 -31 13 -46 29 -52 25 -9 76 14 76 35 0 11 11 15 39 15 25 0 41 5
45 15 7 19 55 19 83 0 32 -22 284 -23 315 -1 12 9 39 16 60 16 34 0 40 4 58
39 29 58 5 74 -37 26 -34 -38 -54 -43 -73 -20 -16 20 -69 19 -91 -1 -16 -14
-20 -14 -51 2 -27 15 -58 18 -180 19 -86 0 -151 4 -157 10 -15 15 -15 60 0
145 15 84 21 2487 6 2567 -11 63 -3 65 259 64 151 -1 231 2 245 9 14 8 24 9
31 2 7 -7 12 -447 14 -1289 4 -1410 4 -1385 22 -1429 16 -38 57 -37 66 2 5 18
13 24 34 24 16 0 32 8 40 20 9 15 19 19 36 14 17 -4 27 1 40 20 16 26 18 26
150 26 74 0 141 3 150 6 22 8 41 71 27 88 -16 20 -381 17 -404 -3 -36 -30 -69
46 -46 106 11 29 14 2035 3 2079 -3 12 0 25 6 29 18 11 507 18 514 7 7 -12 8
-2192 1 -2218 -8 -27 11 -40 31 -23 11 9 14 22 9 47 -7 35 28 101 63 121 11 6
16 27 17 68 1 33 9 72 17 89 9 16 20 47 24 68 7 32 15 41 38 47 38 10 47 26
40 69 -5 29 -1 39 20 59 14 14 26 32 26 42 0 40 51 81 92 75 33 -5 41 -3 60
20 22 25 26 26 123 23 l100 -3 152 154 c151 152 153 154 147 191 -5 30 -2 39
17 52 31 22 36 86 9 117 -11 13 -20 31 -20 41 0 10 -12 29 -26 43 -17 15 -25
30 -21 41 5 11 -20 41 -87 106 -52 50 -97 101 -100 114 -7 28 -31 38 -56 25
-16 -8 -22 -6 -32 10 -11 17 -23 20 -79 20 -58 0 -68 3 -88 26 -14 16 -28 23
-39 19 -11 -4 -31 10 -63 44 -49 52 -65 92 -54 139 4 20 0 35 -15 52 -19 22
-23 43 -24 147 -1 32 -6 46 -23 58 -14 10 -23 26 -23 43 0 16 -8 32 -20 40
-11 7 -20 23 -20 37 0 26 -112 143 -151 157 -11 4 -36 23 -56 43 -24 23 -46
35 -64 35 -16 0 -34 8 -41 19 -12 16 -32 21 -122 27 -69 4 -112 12 -121 20 -7
8 -27 14 -44 14 -17 0 -31 4 -31 9 0 20 -111 119 -128 115 -10 -3 -33 11 -61
37 l-43 42 -99 -2 c-89 -1 -100 1 -111 19 -12 18 -23 20 -140 20 -124 0 -129
1 -150 25 -12 14 -32 25 -44 25 -13 0 -29 6 -36 14 -10 10 -17 11 -32 2 -14
-9 -20 -8 -24 3 -2 8 -16 27 -31 42 -14 16 -32 36 -38 43 -9 10 -24 13 -49 9
-29 -5 -40 -2 -58 18 -33 35 -258 35 -282 0 -13 -17 -24 -21 -57 -20 -56 3
-114 -44 -84 -66 11 -7 17 -22 15 -32 -5 -26 -34 -28 -41 -3 -3 11 -13 20 -22
20 -13 0 -16 -5 -10 -22 16 -52 17 -69 5 -83 -17 -21 -25 -19 -38 9 -16 36
-48 39 -73 8 -12 -16 -34 -29 -52 -32 -26 -4 -33 -10 -35 -33 -5 -38 34 -53
65 -25 43 40 57 -44 24 -148 -10 -32 -22 -72 -25 -87 -10 -41 -36 -17 -36 32
0 41 7 55 33 64 22 8 22 30 1 48 -15 12 -18 11 -28 -4 -6 -10 -19 -28 -28 -39
-12 -15 -18 -40 -20 -82 0 -34 -2 -74 -4 -91 -1 -16 2 -46 6 -65 13 -52 11
-371 -3 -477 l-12 -93 -53 -51 c-48 -47 -52 -53 -46 -85 9 -46 -8 -64 -60 -64
-33 0 -47 6 -65 26 -17 19 -28 24 -44 19 -79 -24 -91 -11 -57 61 25 50 21 61
-25 66 -21 2 -29 7 -25 18 3 8 4 44 3 79 -4 85 9 107 32 57 21 -43 39 -54 60
-36 23 19 18 49 -16 82 -54 55 -62 72 -50 115 6 21 11 73 11 116 0 70 2 79 20
84 27 7 28 14 26 233 l-1 195 -40 5 c-27 3 -40 10 -40 20 0 10 13 17 40 20 55
7 58 42 5 50 -48 7 -55 39 -8 37 44 -3 52 28 8 36 -22 5 -30 12 -30 28 0 17
-4 20 -24 15 -18 -4 -29 -1 -39 15 -8 11 -27 22 -41 23 -15 2 -44 21 -67 45
-51 51 -58 51 -111 -4 -30 -32 -51 -45 -70 -45 -29 0 -34 -10 -40 -75 -2 -19
-9 -30 -18 -30 -11 0 -14 9 -12 32 4 36 -9 47 -44 39 -25 -7 -32 -34 -13 -53
18 -18 24 -130 8 -149 -16 -20 -39 5 -39 43 0 36 -28 27 -46 -14 -22 -52 -20
-97 5 -132 32 -44 27 -103 -6 -70 -6 6 -17 8 -24 4 -9 -6 -8 -11 5 -21 26 -18
16 -48 -17 -52 -22 -3 -27 -8 -27 -31 0 -19 -12 -38 -42 -65 -33 -30 -42 -45
-40 -68 3 -30 3 -30 -73 -32 -62 -1 -71 -27 -12 -37 50 -8 54 -15 27 -44 -28
-30 -59 -32 -93 -5 -33 26 -45 25 -59 -6 -11 -24 -10 -29 15 -48 28 -22 37
-56 15 -56 -7 0 -35 -12 -63 -25 -61 -30 -71 -31 -78 -5 -7 26 -33 26 -48 -1
-10 -20 -17 -21 -135 -18 -118 4 -124 3 -139 -18 -15 -21 -21 -22 -201 -21
l-185 0 -16 25 c-16 25 -17 25 -137 18 l-121 -7 -22 26 c-14 16 -29 23 -38 20
-27 -11 -85 55 -78 88 8 40 -22 37 -36 -3 -14 -40 -31 -28 -31 22 0 26 5 42
15 45 23 9 19 51 -5 57 -24 6 -26 31 -5 70 20 39 30 145 16 180 -9 22 -8 33 2
47 11 15 13 84 10 329 -2 249 0 312 10 323 11 11 15 179 20 916 5 801 7 906
21 927 9 13 16 33 16 43 0 10 21 37 46 60 32 29 44 46 40 58 -10 25 92 127
120 120 28 -7 88 53 78 78 -5 12 7 30 40 62 25 25 46 53 46 63 0 10 9 28 20
41 11 13 20 28 20 35 0 7 -9 22 -20 35 -11 13 -20 30 -20 40 0 14 -48 64 -190
202 -14 13 -37 38 -52 55 -24 28 -31 31 -66 26 -33 -4 -42 -2 -55 18 -15 21
-23 23 -101 20 -76 -2 -85 0 -99 19 -14 21 -18 21 -458 21 -244 -1 -447 -1
-451 -1 -4 0 -10 -9 -13 -21 -6 -19 -13 -20 -116 -18 -104 2 -111 1 -126 -20
-13 -20 -22 -22 -55 -18 -33 4 -43 1 -59 -17 -31 -35 -177 -36 -207 -1 -17 19
-27 22 -60 18 -33 -4 -42 -2 -55 18 -15 21 -22 22 -126 20 -103 -2 -110 -1
-116 18 -3 12 -11 21 -16 21 -5 1 -133 1 -284 1 -151 0 -279 0 -284 -1 -5 0
-13 -9 -16 -21 -6 -19 -13 -20 -116 -18 -104 2 -111 1 -126 -20 -13 -20 -22
-22 -55 -18 -35 5 -42 2 -83 -40 -27 -28 -49 -43 -59 -40 -9 4 -37 -16 -76
-54 -39 -37 -70 -59 -84 -59 -28 0 -48 -21 -37 -39 9 -14 72 7 85 28 10 16 46
14 46 -3 0 -16 -51 -62 -79 -71 -34 -11 -56 -53 -37 -74 9 -10 16 -31 16 -48
0 -24 6 -33 29 -43 57 -23 89 -80 46 -80 -31 0 -25 -23 15 -57 29 -25 40 -42
37 -54 -7 -24 139 -173 161 -164 23 9 121 -94 122 -127 0 -16 4 -28 9 -28 27
0 31 -78 30 -599 -1 -583 -3 -622 -39 -663 l-23 -28 -28 28 c-16 15 -29 37
-29 49 0 28 -22 50 -58 58 -37 8 -117 88 -109 109 9 22 -170 199 -195 193 -15
-4 -18 -1 -12 15 4 14 -1 24 -15 34 -12 9 -21 26 -21 39 0 17 -28 52 -100 121
-69 68 -100 105 -100 121 0 15 -26 47 -80 100 -53 51 -80 85 -80 100 0 15 -37
58 -120 140 -81 79 -120 124 -120 139 0 27 -285 314 -312 314 -36 0 -51 64
-17 75 24 8 22 38 -4 43 -12 2 -17 -3 -17 -17 0 -17 -6 -21 -35 -21 -40 0 -48
22 -14 40 29 16 22 54 -11 59 -30 4 -208 176 -212 205 -4 30 -58 36 -58 7 0
-14 -6 -21 -20 -21 -25 0 -26 15 -1 32 25 18 45 62 38 82 -9 24 -47 20 -47 -4
0 -11 -8 -23 -17 -27 -10 -3 -26 -13 -36 -21 -24 -21 -27 -13 -14 31 9 28 17
37 34 37 14 0 23 6 23 15 0 8 -5 15 -10 15 -6 0 -37 27 -71 59 -38 38 -66 58
-76 54 -9 -3 -31 12 -58 40 -41 42 -48 45 -83 40 -32 -4 -42 -1 -54 16 -14 20
-22 21 -319 23 l-303 3 -21 -23z m-210 -358 c71 -2 299 -6 505 -9 l375 -5 53
-58 c29 -31 73 -84 98 -117 26 -33 76 -93 113 -134 59 -67 83 -94 123 -141 7
-8 37 -44 66 -80 53 -65 143 -169 172 -200 8 -8 28 -34 45 -55 16 -22 41 -52
55 -66 14 -15 39 -43 55 -64 17 -20 48 -58 70 -83 23 -26 54 -63 69 -82 34
-42 115 -136 171 -200 23 -25 61 -70 85 -100 49 -60 94 -112 126 -144 11 -12
33 -39 49 -61 16 -22 36 -47 45 -56 8 -9 42 -47 75 -84 33 -38 67 -76 75 -84
9 -9 47 -54 85 -101 38 -47 92 -109 120 -138 27 -29 54 -61 59 -70 5 -9 27
-38 50 -63 68 -75 144 -164 194 -226 43 -53 93 -111 132 -152 8 -9 56 -66 105
-126 50 -61 97 -117 106 -125 8 -8 33 -37 54 -65 74 -96 103 -103 97 -22 -6
81 -11 549 -17 1447 -3 454 -9 848 -14 875 -5 28 -14 82 -21 120 -27 167 -171
325 -297 325 -17 0 -50 7 -73 15 -23 8 -75 15 -115 15 -84 0 -98 10 -93 65 l3
37 688 0 c738 0 723 1 711 -51 -9 -38 -13 -40 -94 -50 -97 -12 -187 -34 -225
-55 -16 -9 -35 -16 -41 -16 -31 0 -141 -141 -151 -194 -3 -17 -12 -42 -18 -56
-33 -65 -44 -558 -47 -2060 -3 -1342 -2 -1458 14 -1481 23 -37 -33 -86 -70
-61 -17 11 -31 12 -59 5 -59 -14 -132 10 -145 48 -5 16 -19 34 -29 40 -10 5
-26 24 -35 41 -9 18 -24 39 -34 47 -20 18 -254 296 -287 343 -13 17 -42 52
-65 77 -24 26 -58 65 -75 87 -18 21 -39 46 -46 54 -7 8 -35 42 -62 75 -27 33
-67 80 -88 105 -21 25 -44 52 -50 60 -69 85 -127 154 -167 200 -47 53 -160
186 -222 260 -65 79 -172 205 -177 210 -4 3 -29 32 -56 65 -28 32 -57 67 -65
76 -8 9 -29 34 -46 55 -72 88 -134 163 -160 190 -15 16 -43 49 -63 74 -34 42
-86 103 -121 139 -8 9 -55 66 -104 126 -49 61 -94 115 -101 120 -6 6 -51 60
-100 120 -49 61 -101 124 -116 140 -22 24 -101 115 -189 218 -8 10 -34 39 -57
65 -23 26 -48 54 -55 62 -8 8 -27 35 -43 58 -16 24 -46 63 -68 85 -21 23 -49
58 -62 77 -66 98 -96 112 -95 44 0 -16 4 -598 9 -1294 5 -783 12 -1284 19
-1315 5 -27 13 -99 17 -160 13 -216 78 -346 206 -410 26 -14 50 -29 53 -34 4
-5 32 -12 64 -16 31 -4 75 -13 96 -21 29 -11 57 -13 103 -8 62 6 63 6 93 -26
37 -39 37 -44 3 -68 -26 -18 -38 -18 -178 -10 -219 14 -1124 2 -1165 -15 -9
-4 -29 5 -48 21 l-32 27 25 37 25 37 69 -2 c38 -1 74 3 82 9 8 6 40 14 73 17
38 4 66 13 80 25 11 11 35 27 51 35 44 23 115 103 115 130 0 12 8 47 19 77 12
35 21 99 25 175 4 66 11 145 16 175 5 31 11 670 13 1470 5 1576 9 1469 -61
1543 -27 29 -107 87 -120 87 -4 1 -25 9 -47 20 -22 11 -53 19 -69 20 -15 0
-66 9 -111 20 -46 11 -105 19 -131 18 -46 -3 -48 -2 -57 30 -18 61 22 100 88
84 11 -3 78 -6 150 -8z m6017 -22 c7 -7 7 -24 1 -49 l-9 -38 -84 -3 c-254 -8
-406 -104 -435 -276 -8 -50 -8 -3006 0 -3100 10 -105 58 -223 110 -269 41 -36
174 -97 212 -97 21 0 67 -7 103 -16 90 -21 799 -21 911 0 41 8 107 18 147 22
39 3 72 10 72 15 0 4 10 11 23 14 12 4 36 13 52 20 17 8 63 28 103 46 39 18
72 36 72 41 0 4 14 17 30 27 48 28 169 188 207 271 19 41 43 94 54 117 10 23
19 50 19 60 0 10 7 31 15 47 8 16 19 63 24 106 5 42 13 86 20 98 6 11 11 33
11 49 0 42 12 53 66 59 76 9 89 -10 69 -107 -16 -77 -26 -168 -45 -399 -6 -74
-15 -166 -20 -205 -5 -38 -9 -150 -10 -247 -1 -135 -4 -179 -15 -188 -10 -8
-416 -11 -1502 -10 -1763 2 -1758 2 -1802 -16 -52 -22 -84 -17 -121 16 -18 17
-38 30 -44 30 -5 0 5 16 24 35 33 35 35 35 118 35 46 0 92 5 103 11 11 5 45
14 75 19 35 6 67 19 87 35 18 15 47 36 66 48 50 33 78 96 96 222 14 97 17 283
20 1530 4 1764 4 1766 -119 1865 -21 16 -44 30 -51 30 -7 0 -18 6 -24 14 -6 7
-33 16 -60 20 -26 3 -51 10 -55 14 -4 4 -44 12 -89 17 -80 10 -81 11 -91 42
-6 22 -5 37 2 45 13 17 1648 16 1664 0z m-1666 -436 c43 8 79 -21 94 -75 6
-22 10 -257 10 -598 0 -407 3 -562 11 -565 23 -8 28 -113 28 -608 1 -494 1
-505 21 -518 19 -12 20 -23 20 -268 0 -210 3 -260 15 -285 19 -36 13 -49 -26
-49 -22 0 -29 -5 -29 -20 0 -11 7 -20 15 -20 31 0 38 -49 22 -135 -9 -44 -15
-91 -14 -105 2 -23 -2 -26 -44 -30 -42 -5 -97 -45 -99 -72 0 -3 -24 -24 -52
-45 -97 -70 -127 -105 -114 -132 8 -19 7 -26 -10 -40 -11 -9 -24 -36 -30 -61
-9 -44 -10 -45 -51 -48 -23 -2 -55 3 -70 11 -16 8 -61 15 -102 16 -88 2 -104
11 -95 55 4 24 0 39 -17 61 -16 20 -19 30 -11 33 49 16 58 102 12 102 -32 0
-31 18 1 29 34 12 35 31 1 46 -26 11 -28 28 -7 48 8 9 15 33 15 54 0 96 12
168 32 186 15 15 18 26 12 50 -19 84 -1 411 24 426 10 6 19 556 21 1238 1 152
4 184 17 197 14 14 16 62 15 394 -1 392 4 469 33 497 12 13 15 26 10 52 -5 28
-2 39 19 61 14 15 27 38 29 52 3 23 7 25 50 25 38 0 51 5 64 23 10 15 22 21
34 17 13 -4 26 2 42 20 l22 25 24 -25 c20 -22 29 -25 58 -19z m-3314 -1252 c5
-3 8 -13 8 -24 0 -17 64 -90 79 -90 10 0 41 -56 41 -75 0 -21 109 -126 189
-182 39 -27 61 -50 61 -62 0 -11 25 -44 55 -74 30 -30 55 -63 55 -74 0 -10 16
-34 35 -53 20 -19 35 -44 35 -57 0 -13 6 -23 14 -23 20 0 76 -52 76 -70 0 -24
137 -160 162 -160 27 0 68 -37 68 -61 0 -10 9 -23 20 -29 11 -6 20 -18 20 -27
0 -9 8 -22 18 -29 15 -12 15 -15 2 -23 -12 -8 -10 -14 13 -35 15 -14 27 -29
27 -33 0 -9 19 -20 83 -48 27 -13 37 -23 37 -40 0 -24 78 -115 98 -115 7 0 12
14 12 30 0 20 5 30 15 30 10 0 15 -11 15 -35 0 -19 -4 -35 -10 -35 -5 0 -12
-11 -16 -23 -8 -33 240 -287 280 -287 21 0 28 -6 32 -29 4 -19 33 -57 80 -103
40 -40 80 -90 89 -110 19 -49 49 -78 80 -78 14 0 29 -8 35 -19 5 -11 18 -22
28 -26 11 -3 24 -17 30 -30 7 -14 28 -35 47 -46 24 -14 35 -28 35 -44 0 -14
20 -44 50 -76 27 -30 49 -60 47 -68 -4 -24 -28 -25 -34 -2 -3 14 -16 24 -33
28 -16 3 -45 22 -66 44 -20 21 -41 36 -46 33 -15 -10 -8 -33 20 -61 33 -32 53
-75 44 -90 -5 -7 -254 -11 -752 -12 l-745 -2 -23 26 c-19 22 -27 24 -62 19
-33 -5 -41 -3 -46 12 -25 70 -46 104 -64 104 -12 0 -25 11 -32 25 -6 14 -22
28 -35 31 -32 8 -43 33 -43 93 0 72 -27 71 -36 0 -15 -111 -123 -56 -124 63 0
9 -36 52 -80 96 l-80 78 0 926 c0 731 3 928 13 932 13 6 167 -3 179 -10z
m1863 -184 c0 -47 -27 -52 -49 -9 -18 36 -8 51 29 47 16 -2 20 -11 20 -38z
m2825 -1147 c0 -32 -4 -43 -15 -43 -16 0 -21 62 -9 95 11 27 24 -3 24 -52z
m2249 -112 c13 -81 2 -132 -24 -111 -16 13 -22 159 -8 173 15 15 21 4 32 -62z
m-10761 -270 l154 -6 -3 -960 c-3 -1166 -4 -1112 15 -1191 11 -45 -14 -52
-174 -49 -74 1 -178 -1 -230 -6 -150 -14 -224 29 -157 91 27 26 25 -85 26
1138 l2 992 107 -1 c59 -1 176 -4 260 -8z m4080 -623 c-4 -27 -18 -32 -42 -15
-24 17 -13 37 20 37 20 0 25 -4 22 -22z m9900 -304 c16 -5 14 -295 -2 -306
-12 -8 -548 2 -558 11 -11 10 -31 217 -24 245 10 42 35 48 222 48 96 0 198 4
227 8 48 7 103 5 135 -6z m-14501 -10 c25 -4 34 -11 39 -31 8 -30 -4 -245 -14
-254 -4 -4 -129 -9 -278 -12 l-271 -6 -7 82 c-19 256 -39 239 257 232 133 -3
257 -8 274 -11z m11795 -66 c23 -15 25 -21 19 -50 -19 -82 -59 -108 -164 -108
-147 0 -164 -24 -25 -35 90 -7 178 -34 178 -55 0 -5 -17 -14 -37 -20 -60 -17
-9598 -9 -9615 8 -17 17 2 29 62 38 25 4 52 12 60 19 8 8 31 15 50 17 73 7 1
40 -84 39 -64 -1 -134 105 -95 144 20 20 373 22 4939 21 4403 -1 4687 -2 4712
-18z"/>
<path d="M12463 8535 c-3 -9 -4 -18 -2 -20 9 -8 124 -8 121 1 -3 7 -71 28
-110 34 -1 0 -5 -7 -9 -15z"/>
<path d="M9581 10247 c-5 -13 -17 -27 -25 -30 -20 -8 -21 -26 -2 -33 19 -7 68
41 64 62 -5 27 -27 28 -37 1z"/>
<path d="M9342 8628 c-16 -16 -15 -60 2 -84 25 -32 51 2 40 52 -10 41 -23 51
-42 32z"/>
<path d="M9500 8610 c0 -27 27 -37 47 -17 20 19 9 37 -23 37 -17 0 -24 -5 -24
-20z"/>
<path d="M9265 7770 l-200 -5 125 -6 c193 -10 2940 -8 2946 2 3 5 -407 9 -953
9 -527 0 -1129 1 -1338 2 -209 2 -470 1 -580 -2z"/>
<path d="M12825 7770 c-198 -3 -358 -7 -355 -9 11 -7 984 -9 1028 -1 53 9 71
7 -203 13 -60 2 -272 0 -470 -3z"/>
<path d="M15270 7770 c-33 -4 -40 -7 -27 -12 26 -11 95 -10 101 1 8 13 -22 17
-74 11z"/>
<path d="M8310 7760 c0 -5 22 -10 49 -10 28 0 53 5 56 10 4 6 -15 10 -49 10
-31 0 -56 -4 -56 -10z"/>
<path d="M13753 7763 c10 -10 749 -13 857 -4 65 6 -55 9 -384 10 -264 0 -476
-2 -473 -6z"/>
<path d="M15728 7763 c34 -2 88 -2 120 0 31 2 3 3 -63 3 -66 0 -92 -1 -57 -3z"/>
<path d="M15673 9583 c-16 -6 -17 -28 -2 -55 13 -24 29 -9 29 29 0 24 -9 33
-27 26z"/>
<path d="M8300 8906 c0 -30 4 -36 21 -36 17 0 20 5 17 32 -5 49 -38 52 -38 4z"/>
<path d="M10559 7339 c-32 -19 1 -39 66 -39 62 0 93 16 71 37 -9 9 -123 11
-137 2z"/>
<path d="M12159 7339 c-32 -19 1 -39 66 -39 62 0 93 16 71 37 -9 9 -123 11
-137 2z"/>
<path d="M13320 7340 c-28 -17 -2 -40 45 -40 33 0 47 5 52 16 8 20 -11 32 -52
32 -18 0 -38 -4 -45 -8z"/>
<path d="M16115 7340 c-10 -16 4 -30 29 -30 25 0 51 22 39 33 -10 11 -61 8
-68 -3z"/>
<path d="M16672 6988 c3 -34 22 -48 31 -24 9 22 -4 56 -20 56 -10 0 -13 -9
-11 -32z"/>
<path d="M18424 6986 c-7 -31 3 -66 21 -66 16 0 24 30 18 64 -7 33 -31 34 -39
2z"/>
<path d="M8468 6863 c-43 -2 -78 -8 -78 -12 0 -13 -57 -31 -97 -31 -19 0 -48
-8 -65 -17 -29 -18 -29 -18 -49 7 -16 20 -22 22 -26 10 -12 -30 -62 -70 -88
-70 -14 0 -28 -7 -31 -15 -4 -9 -19 -15 -35 -15 -25 0 -29 -4 -29 -26 0 -20
-22 -49 -90 -117 -56 -56 -90 -98 -90 -111 0 -21 -58 -86 -77 -86 -7 0 -9 -53
-7 -151 3 -139 5 -153 24 -166 12 -9 20 -25 20 -44 0 -16 4 -29 10 -29 5 0 13
-12 16 -27 4 -16 15 -39 26 -52 10 -13 18 -31 18 -40 0 -20 137 -161 155 -161
9 0 15 -14 17 -36 2 -21 10 -40 18 -44 8 -4 24 -12 35 -18 39 -23 45 -24 60
-8 9 9 20 16 23 16 11 0 62 -49 62 -59 0 -10 47 -18 152 -27 62 -6 68 -5 89
20 26 29 34 31 69 13 38 -19 121 -20 134 -1 7 8 31 18 55 21 67 9 93 39 90
105 -1 30 1 60 5 66 9 15 46 16 46 2 0 -5 15 -9 33 -9 17 1 42 -2 54 -6 19 -6
25 -2 38 26 l14 34 1 -32 c0 -17 -6 -33 -12 -36 -23 -8 25 -62 58 -65 16 -2
39 -14 52 -28 13 -13 31 -24 41 -24 10 0 30 -9 44 -20 14 -11 34 -20 45 -20
10 0 27 -9 37 -20 21 -23 43 -25 114 -8 62 14 86 0 77 -44 -7 -34 16 -39 42
-9 18 20 72 41 107 41 13 0 28 7 35 15 7 8 23 15 35 15 12 0 28 -7 35 -15 20
-24 36 -18 76 25 42 45 58 49 74 19 9 -16 19 -20 53 -17 39 3 44 6 67 52 38
74 101 89 113 27 5 -23 13 -32 34 -37 15 -4 55 -22 89 -39 39 -21 66 -30 74
-25 11 7 7 12 -13 21 -43 19 -32 29 33 29 l60 0 0 -34 c0 -40 22 -66 55 -66
13 0 31 -3 40 -6 13 -5 16 -2 13 17 -2 16 -11 25 -26 27 -19 3 -42 35 -42 58
0 10 43 3 65 -12 27 -18 82 -6 105 22 24 28 181 14 201 -18 13 -20 82 -17 106
4 32 29 63 16 63 -27 0 -46 48 -59 87 -23 14 12 38 33 52 46 14 12 36 32 49
45 33 31 164 35 201 6 13 -11 31 -19 41 -19 46 0 79 -21 82 -53 3 -28 6 -32
31 -29 17 2 29 -3 33 -13 8 -20 33 -19 57 3 16 13 21 14 25 3 2 -7 13 -21 23
-29 25 -21 24 -30 -3 -52 -22 -18 -22 -19 -4 -26 13 -5 23 -2 32 11 19 26 247
26 287 0 18 -11 36 -15 52 -11 35 9 22 25 -26 32 -32 5 -39 10 -33 23 3 9 9
25 12 36 8 31 22 35 62 19 27 -11 44 -12 63 -5 44 17 28 46 -27 53 -40 4 -42
20 -6 46 23 18 34 20 49 12 39 -21 79 -12 112 25 36 40 72 46 91 15 8 -12 24
-20 40 -20 17 0 33 -8 40 -20 8 -12 24 -20 39 -20 28 0 64 -35 80 -77 9 -24
12 -25 62 -19 28 3 62 6 75 6 15 0 22 6 22 19 0 15 -10 19 -52 24 -69 9 -87
26 -28 29 62 2 83 -1 90 -12 11 -19 95 -24 109 -7 10 13 9 18 -11 28 -13 6
-24 13 -26 14 -1 1 11 16 27 34 33 35 60 40 68 12 3 -11 17 -21 31 -24 15 -3
60 -12 100 -19 40 -8 77 -19 82 -24 13 -13 -15 -53 -46 -64 -34 -13 -30 -27
10 -38 69 -20 151 5 131 39 -12 18 16 49 42 49 52 0 158 61 175 101 11 27 23
37 45 42 17 3 38 13 46 22 21 20 37 19 37 -4 0 -23 76 -101 100 -101 9 0 25
-9 35 -20 12 -14 37 -21 86 -26 94 -9 87 -20 -17 -27 -98 -6 -117 -16 -88 -48
19 -21 42 -22 146 -4 31 6 37 4 43 -14 7 -24 35 -29 35 -6 0 8 -9 19 -20 25
-11 6 -20 15 -20 20 0 11 73 50 94 50 27 0 66 44 79 90 16 56 53 64 75 17 19
-38 39 -44 66 -18 23 21 24 21 54 4 18 -10 32 -25 32 -33 0 -23 38 -80 54 -80
7 0 19 7 26 15 14 17 77 20 100 5 17 -11 14 -14 -25 -27 -61 -20 -44 -46 39
-58 44 -7 46 -6 46 16 0 34 15 53 34 46 11 -4 24 2 38 18 28 33 138 37 160 7
28 -39 78 -34 78 8 0 29 19 34 44 11 12 -12 34 -21 48 -21 30 0 94 -25 103
-41 4 -6 -2 -19 -14 -30 -12 -11 -19 -25 -15 -30 9 -15 54 -1 80 24 12 12 57
57 101 100 l79 77 62 0 c55 0 63 -3 78 -25 11 -17 23 -24 34 -20 11 3 34 -5
55 -20 21 -14 50 -25 64 -25 36 0 54 -14 47 -36 -9 -30 9 -51 28 -35 9 8 16
20 16 27 0 19 19 17 65 -6 22 -11 45 -18 52 -16 6 3 17 -1 23 -9 15 -18 321
-15 344 4 9 7 22 11 30 8 8 -3 26 3 39 14 14 10 34 19 45 19 11 0 40 20 65 44
80 80 97 105 97 142 0 36 23 47 48 22 19 -19 37 4 23 30 -22 41 -3 131 34 168
15 16 10 120 -7 141 -26 32 -44 184 -26 213 16 25 -13 114 -37 118 -35 7 -40
21 -12 31 36 14 34 37 -3 45 -37 7 -39 23 -5 38 29 13 28 31 -1 37 -10 2 -29
14 -41 27 -12 13 -31 24 -41 24 -34 0 -34 28 -1 45 29 15 32 35 4 35 -7 0 -15
7 -19 15 -7 19 -32 19 -40 0 -7 -19 -35 -19 -42 0 -3 8 -24 20 -45 25 -21 6
-39 15 -39 20 0 6 -13 10 -29 10 -19 0 -35 8 -45 21 -14 21 -22 22 -162 21
-83 -1 -150 -6 -153 -11 -9 -14 -58 -31 -89 -31 -16 0 -32 -8 -40 -20 -7 -11
-23 -20 -37 -20 -14 0 -37 -12 -52 -28 -16 -16 -43 -34 -62 -40 -19 -7 -40
-20 -47 -31 -19 -27 -140 -27 -155 0 -10 20 -39 26 -39 8 0 -22 -45 -4 -48 19
-4 28 -58 82 -83 82 -10 0 -25 7 -34 16 -10 11 -33 17 -60 17 -27 0 -50 -6
-60 -17 -9 -9 -23 -16 -31 -16 -8 0 -28 -10 -45 -22 -21 -16 -45 -23 -87 -24
-31 -1 -67 -5 -79 -9 -18 -6 -25 -2 -34 19 -9 19 -20 26 -40 26 -19 0 -34 8
-44 24 -20 30 -170 32 -200 3 -9 -10 -24 -17 -34 -17 -27 0 -84 -58 -78 -80 3
-13 0 -16 -14 -13 -12 4 -22 -4 -33 -26 -9 -17 -21 -31 -25 -31 -5 0 -16 -3
-25 -6 -11 -4 -19 2 -26 21 -10 27 -18 28 -61 11 -18 -8 -32 15 -23 39 4 10
20 14 57 12 74 -3 75 27 2 31 -30 2 -53 9 -58 18 -9 16 -33 19 -42 4 -4 -6 -2
-17 4 -24 34 -41 -39 -33 -79 9 -19 19 -41 35 -50 35 -10 0 -27 9 -40 20 -13
11 -28 20 -35 20 -7 0 -22 -9 -35 -20 -13 -11 -31 -20 -41 -20 -9 0 -28 -13
-42 -29 -18 -22 -30 -28 -50 -24 -16 3 -27 1 -27 -5 0 -6 -10 -12 -22 -14 -43
-6 -36 -46 9 -50 53 -4 53 -32 0 -36 -47 -4 -67 11 -67 49 0 41 -32 39 -48 -3
-13 -35 -28 -30 -34 12 -4 32 -39 34 -53 3 -6 -14 -18 -23 -33 -23 -32 0 -40
29 -13 49 12 9 19 20 15 24 -11 11 -44 8 -44 -3 0 -5 -4 -10 -9 -10 -18 0 15
51 37 56 24 7 29 28 10 40 -6 4 -19 -2 -29 -14 -20 -26 -61 -29 -84 -6 -25 25
-69 30 -153 19 -78 -11 -98 -25 -62 -45 26 -14 8 -44 -22 -37 -11 3 -30 -7
-51 -28 -18 -18 -42 -34 -52 -36 -14 -3 -21 -14 -23 -37 -4 -38 -14 -41 -31
-8 -10 19 -10 27 0 44 17 27 0 48 -57 73 -23 9 -45 22 -48 28 -4 6 -15 11 -25
11 -10 0 -28 9 -40 19 -37 32 -84 25 -130 -20 -22 -21 -46 -39 -54 -39 -23 0
-96 -51 -103 -72 -7 -24 -21 -23 -29 2 -6 18 -17 25 -38 21 -16 -3 -82 24 -90
37 -5 7 -18 10 -30 7 -16 -4 -29 1 -45 19 -12 15 -30 26 -41 26 -10 0 -30 9
-44 20 -14 11 -30 20 -37 20 -6 0 -21 6 -33 12 -12 7 -35 13 -52 14 -186 6
-258 5 -264 -4 -9 -15 -57 -32 -87 -32 -16 0 -35 -11 -50 -29 -19 -23 -35 -30
-81 -36 -32 -4 -71 -13 -88 -20 -16 -8 -39 -15 -50 -17 -33 -5 -27 -52 8 -56
23 -3 27 0 27 22 0 30 13 40 41 31 28 -9 22 -49 -8 -53 -27 -4 -29 -11 -7 -27
11 -8 14 -19 10 -33 -10 -30 -32 -28 -40 3 -4 16 -13 25 -27 25 -30 0 -34 -28
-10 -60 11 -16 21 -34 21 -40 0 -15 -20 -12 -26 5 -4 8 -11 15 -17 15 -6 0
-19 7 -29 17 -17 15 -20 15 -41 -5 -51 -48 -113 -23 -154 65 -13 27 -25 37
-43 38 -14 0 -37 13 -52 28 -15 15 -32 27 -38 27 -11 0 -26 12 -86 67 l-38 35
-103 0 c-101 0 -105 -1 -125 -27 -12 -15 -40 -35 -64 -45 -26 -12 -49 -30 -58
-48 -8 -16 -22 -32 -30 -35 -8 -3 -23 -21 -32 -39 -9 -18 -25 -39 -35 -46 -11
-7 -19 -19 -19 -27 0 -18 -52 -55 -77 -55 -10 0 -35 18 -56 40 -22 25 -45 40
-60 40 -16 0 -49 26 -106 85 -49 50 -92 85 -103 85 -11 0 -36 16 -55 35 -20
20 -45 35 -58 35 -30 0 -77 18 -86 32 -8 13 -341 11 -349 -2 -8 -13 -57 -30
-86 -30 -16 0 -36 -13 -55 -35 -36 -40 -48 -43 -72 -15 -9 11 -26 20 -37 20
-10 0 -24 -9 -30 -20 -6 -11 -20 -20 -31 -20 -12 0 -40 -20 -64 -45 -46 -50
-84 -54 -105 -14 -6 10 -26 26 -45 35 -19 9 -37 24 -40 35 -4 11 -22 23 -46
29 -21 6 -39 15 -39 20 0 6 -13 10 -28 10 -18 0 -37 9 -50 25 -12 14 -25 24
-29 23 -5 -1 -43 -4 -85 -5z m6192 -163 c0 -24 -26 -38 -42 -22 -16 16 -2 42
22 42 13 0 20 -7 20 -20z m-5607 4 c9 -10 -25 -73 -43 -79 -9 -3 -22 -17 -29
-31 -12 -27 -34 -28 -39 -1 -2 11 6 19 22 23 20 5 26 12 26 34 0 41 41 76 63
54z m-438 -174 c18 -11 37 -20 43 -20 6 0 31 -14 56 -31 57 -38 61 -70 16
-112 -16 -16 -30 -33 -30 -38 0 -23 -75 -4 -132 34 -62 43 -208 37 -283 -10
-82 -52 -129 -169 -106 -261 5 -20 12 -49 15 -65 27 -117 215 -191 338 -133
30 14 59 26 64 26 5 0 14 8 21 19 22 35 103 37 103 2 0 -9 16 -32 35 -51 19
-19 35 -39 35 -44 0 -21 -147 -101 -204 -111 -21 -4 -55 -14 -74 -22 -41 -17
-160 -10 -204 13 -15 8 -34 14 -42 14 -39 0 -159 97 -206 166 -75 112 -100
242 -61 326 11 26 21 57 21 70 0 13 8 31 18 41 9 9 37 41 62 71 25 30 50 55
56 55 6 1 19 10 29 21 10 11 26 20 35 20 10 0 28 9 42 19 46 37 295 37 353 1z
m1051 -1 c17 -10 36 -19 42 -19 23 0 104 -64 137 -108 19 -26 42 -56 50 -67 8
-10 15 -26 15 -35 0 -9 9 -41 20 -73 42 -119 -29 -342 -129 -405 -14 -9 -30
-22 -34 -29 -4 -7 -16 -13 -26 -13 -10 0 -30 -9 -44 -20 -25 -20 -58 -29 -178
-52 -49 -9 -65 -8 -118 11 -34 11 -68 21 -77 21 -9 0 -29 11 -46 25 -16 14
-38 25 -49 25 -11 0 -27 13 -37 30 -10 16 -30 38 -44 49 -14 12 -33 39 -42 62
-9 23 -23 48 -31 56 -28 28 -23 247 7 308 71 140 187 235 313 255 82 14 235 2
271 -21z m2284 -6 c28 -16 65 -35 82 -44 63 -33 66 -81 6 -127 -52 -40 -69
-40 -124 0 -65 46 -235 49 -299 6 -49 -34 -49 -34 -83 -83 -36 -53 -41 -212
-7 -259 11 -16 27 -41 35 -55 21 -35 122 -83 188 -89 59 -5 98 10 168 66 54
42 73 41 129 -13 60 -56 57 -78 -19 -134 -48 -36 -83 -49 -206 -81 -56 -15
-104 -12 -151 10 -24 11 -58 20 -76 20 -17 0 -35 5 -38 10 -4 6 -27 21 -53 34
-62 32 -161 157 -162 204 0 12 -7 39 -16 60 -18 44 -23 144 -7 163 6 8 14 32
18 54 4 22 17 56 28 75 27 46 155 170 176 170 9 0 28 8 41 17 61 43 286 40
370 -4z m668 21 c11 -3 13 -36 11 -159 -2 -84 0 -157 4 -161 10 -11 360 -4
371 7 6 5 9 74 7 158 -2 115 0 151 11 157 18 12 140 14 154 3 7 -6 10 -133 9
-416 l-2 -408 -54 -3 c-30 -2 -69 0 -87 3 l-32 6 2 162 3 162 -195 0 -195 0 0
-158 c0 -182 3 -177 -92 -177 -82 0 -105 24 -91 97 5 27 8 200 7 386 -2 278 0
340 12 347 12 8 127 4 157 -6z m1170 2 c3 -4 7 -191 7 -416 l0 -408 -30 -11
c-27 -9 -125 6 -141 22 -7 7 -7 805 0 816 7 11 152 8 164 -3z m1188 -1 c21 -6
9 -797 -13 -812 -46 -34 -154 -5 -187 51 -13 22 -54 79 -90 126 -36 47 -74 95
-84 108 -9 12 -24 30 -34 40 -9 9 -36 44 -61 77 -56 75 -88 106 -101 102 -13
-5 -14 -109 -5 -327 7 -149 6 -156 -14 -178 -15 -16 -29 -21 -47 -18 -14 3
-45 7 -70 11 l-45 5 2 400 c1 220 4 404 8 410 13 21 147 12 172 -12 13 -12 23
-26 23 -30 0 -8 64 -94 104 -140 29 -33 162 -204 178 -228 9 -14 30 -40 47
-59 16 -19 32 -38 34 -44 2 -6 9 -7 16 -3 13 9 12 81 -5 397 -8 135 -2 142 94
133 37 -3 72 -7 78 -9z m1025 -24 c29 -17 69 -38 87 -46 42 -20 40 -40 -7 -92
-49 -54 -76 -61 -122 -30 -51 35 -155 51 -228 37 -150 -31 -221 -150 -192
-322 27 -156 212 -241 382 -175 l59 22 0 66 0 66 -91 6 c-112 8 -109 7 -109
72 0 71 0 71 200 65 l165 -5 -1 -168 c-1 -189 -8 -213 -76 -232 -19 -5 -41
-15 -49 -21 -8 -6 -54 -23 -104 -38 -217 -66 -474 58 -546 263 -31 85 -34 232
-6 271 9 13 17 35 17 49 0 27 3 32 89 119 34 35 78 70 99 79 20 8 44 21 52 28
20 18 81 24 216 20 102 -3 114 -5 165 -34z m-5276 -21 c30 -57 95 -196 130
-280 16 -36 34 -74 41 -85 8 -11 14 -29 14 -42 0 -12 4 -25 10 -28 5 -3 24
-36 41 -73 17 -37 40 -84 50 -104 10 -20 19 -44 19 -52 0 -9 9 -21 20 -28 35
-22 27 -75 -15 -92 -31 -13 -39 -13 -91 7 -61 24 -61 24 -94 107 -12 30 -27
61 -32 68 -12 13 -364 18 -384 4 -15 -10 -40 -60 -48 -97 -11 -46 -37 -71 -91
-84 -57 -14 -66 -18 -81 -45 -14 -27 -29 -30 -48 -11 -19 20 -20 29 -3 47 6 7
13 28 14 46 0 18 7 40 15 48 15 19 83 137 99 174 6 14 19 42 30 62 10 20 19
46 19 56 0 11 9 31 20 45 11 14 20 30 20 35 0 12 41 106 86 196 19 37 34 72
34 78 0 5 12 30 26 54 l26 45 75 -3 74 -3 24 -45z m1098 -964 c10 -27 -17 -36
-105 -36 -83 0 -88 1 -88 21 0 17 5 20 24 17 14 -3 42 -2 63 2 63 12 100 11
106 -4z"/>
<path d="M9412 6385 c-183 -57 -239 -294 -102 -436 147 -152 410 -74 439 131
23 167 -47 279 -193 308 -73 15 -89 14 -144 -3z"/>
<path d="M10590 6283 c-6 -15 -17 -41 -25 -58 -82 -174 -83 -170 47 -173 132
-3 150 9 114 76 -8 15 -26 54 -41 87 -37 86 -40 90 -64 93 -15 3 -24 -4 -31
-25z"/>
<path d="M10273 6713 c-7 -2 -13 -13 -13 -24 0 -10 -7 -19 -15 -19 -19 0 -40
-43 -32 -64 10 -26 36 -18 43 12 10 48 13 52 34 52 16 0 21 5 18 22 -3 23 -15
30 -35 21z"/>
<path d="M16264 6706 c-8 -21 3 -36 27 -36 15 0 20 6 17 22 -4 27 -35 37 -44
14z"/>
<path d="M18555 6580 c-4 -7 -3 -16 3 -22 14 -14 57 -6 57 12 0 18 -50 26 -60
10z"/>
<path d="M19026 6443 c-15 -17 -27 -22 -43 -18 -43 10 -72 -4 -75 -38 -2 -25
-9 -33 -28 -37 -28 -6 -33 -10 -152 -127 -66 -65 -88 -81 -105 -77 -25 7 -69
-46 -45 -54 22 -7 15 -72 -9 -80 -20 -8 -20 -9 6 -20 33 -15 28 -35 -11 -42
-20 -4 -30 -12 -32 -28 -3 -16 -10 -22 -30 -22 -16 0 -32 -8 -40 -20 -7 -12
-23 -20 -40 -20 -17 0 -32 -8 -40 -20 -10 -17 -22 -20 -59 -19 -40 3 -49 -1
-74 -29 -16 -18 -36 -32 -44 -32 -20 0 -25 -14 -28 -75 -1 -37 -6 -50 -17 -50
-8 0 -13 7 -11 15 8 35 4 44 -27 63 -62 36 -86 -7 -31 -56 17 -15 35 -27 41
-27 13 0 6 -32 -8 -37 -6 -2 -14 6 -17 18 -5 17 -10 20 -36 14 -32 -7 -51 13
-51 54 0 12 -7 21 -15 21 -9 0 -20 11 -25 25 -11 28 -22 31 -38 12 -8 -10 -6
-22 8 -45 11 -18 20 -40 19 -50 0 -13 -3 -12 -11 6 -14 29 -110 23 -141 -9
-10 -11 -28 -19 -41 -19 -27 0 -52 -25 -61 -62 -4 -15 -19 -35 -33 -44 -15 -9
-40 -28 -55 -42 -23 -22 -31 -24 -46 -15 -16 10 -27 8 -57 -6 -29 -14 -52 -18
-89 -14 -54 6 -99 -17 -77 -39 16 -16 90 -22 107 -8 9 7 17 11 18 9 18 -25 37
-60 37 -69 0 -19 -48 -11 -55 9 -5 17 -12 19 -53 14 -37 -4 -51 -2 -61 11 -18
22 -38 20 -46 -4 -6 -20 -35 -29 -35 -11 0 23 -34 41 -77 41 -36 0 -46 4 -50
20 -6 21 -46 27 -72 11 -28 -18 -4 -43 33 -35 32 5 36 4 41 -19 16 -61 -18
-87 -47 -37 -25 44 -52 39 -105 -20 -46 -52 -76 -63 -88 -33 -8 22 23 49 76
65 47 13 51 43 6 43 -37 1 -52 17 -38 43 15 28 14 29 -14 36 -18 5 -26 15 -31
42 -6 35 -48 65 -64 47 -22 -24 -19 -70 6 -81 23 -11 35 -52 15 -52 -23 0 -41
14 -41 32 0 47 -105 138 -160 138 -13 0 -24 9 -30 25 -8 20 -16 25 -45 25 -19
0 -35 5 -35 10 0 6 9 10 20 10 10 0 28 9 39 21 27 30 57 22 53 -14 -5 -37 14
-60 38 -47 27 14 50 12 50 -5 0 -43 85 -47 94 -4 4 19 13 33 26 36 11 3 23 16
26 29 4 14 15 29 26 35 15 8 17 14 9 22 -12 12 -57 -24 -66 -54 -3 -10 -19
-19 -38 -22 -18 -3 -42 -8 -54 -12 -17 -6 -25 -1 -37 24 -10 19 -24 31 -36 31
-13 0 -22 9 -26 25 -4 18 -13 25 -30 25 -17 0 -27 -8 -34 -25 -9 -23 -15 -25
-72 -25 -101 0 -149 -27 -73 -40 49 -8 23 -25 -32 -22 -56 4 -55 5 -68 -52 -4
-19 -15 -32 -34 -39 -22 -8 -30 -19 -35 -45 -3 -20 -18 -46 -36 -63 -17 -17
-30 -39 -30 -54 0 -13 -10 -31 -22 -39 -21 -15 -22 -22 -20 -119 3 -93 2 -104
-17 -121 -32 -29 -32 -293 0 -322 13 -12 18 -26 15 -40 -4 -16 1 -26 20 -39
24 -15 26 -22 21 -60 -6 -38 -4 -45 18 -59 14 -9 25 -24 25 -33 0 -14 3 -14
21 3 20 18 21 18 48 -14 l26 -33 28 29 c34 35 35 72 2 100 -17 15 -25 32 -25
54 0 17 -8 40 -17 51 -26 28 -26 376 -1 404 9 10 19 39 23 65 4 26 13 53 21
59 8 6 14 20 14 31 0 11 20 44 45 75 25 30 45 59 45 63 0 22 140 79 171 70 81
-23 129 -125 129 -273 l0 -104 -41 -7 c-64 -10 -73 7 -43 80 12 29 13 43 5 56
-6 9 -8 30 -5 46 5 23 -1 37 -26 66 -36 41 -59 45 -85 16 -10 -11 -24 -20 -30
-20 -13 0 -65 -69 -65 -87 0 -6 -7 -16 -15 -23 -7 -6 -17 -33 -21 -58 -3 -26
-14 -55 -23 -66 -29 -33 -23 -346 8 -410 63 -129 165 -166 276 -101 42 25 125
108 125 125 0 5 5 10 10 10 6 0 10 13 10 30 0 19 7 33 21 40 11 7 27 27 35 45
7 19 18 36 24 40 5 3 10 14 10 24 0 10 20 37 45 60 36 34 45 49 45 76 0 58 38
92 104 92 44 0 57 -3 61 -18 9 -27 45 -69 60 -69 29 0 65 46 65 82 0 46 45
128 71 128 19 0 24 -27 21 -115 l-1 -30 9 28 c14 46 84 107 123 107 44 0 57
-15 57 -69 0 -116 41 -141 92 -55 56 93 72 131 87 204 16 74 43 114 81 121 19
3 45 9 57 13 19 6 26 1 43 -26 34 -55 35 -74 5 -103 -35 -31 -34 -31 -47 5
-12 35 -32 35 -36 -1 -2 -13 -10 -38 -18 -56 -31 -68 -8 -153 41 -153 25 0 85
47 85 66 0 7 7 14 15 18 8 3 15 14 15 25 0 11 9 22 20 26 11 3 23 18 27 33 3
15 14 38 25 51 10 13 18 32 18 42 0 9 6 30 14 46 8 15 19 46 25 68 13 46 35
74 76 95 29 16 31 15 63 -18 17 -19 32 -39 32 -45 0 -22 -56 -124 -82 -148
-50 -48 -50 -109 1 -109 77 0 203 192 214 329 6 67 22 96 50 85 26 -10 38 -87
23 -156 -12 -57 9 -85 23 -31 6 23 18 54 26 70 8 15 15 36 15 45 0 23 121 148
143 148 35 0 77 -54 77 -99 0 -44 2 -46 30 -31 61 33 66 46 65 183 -1 130 -11
165 -37 139 -7 -7 -21 -12 -32 -12 -11 0 -37 -12 -57 -26 -34 -23 -41 -24 -78
-14 -36 9 -60 40 -32 40 5 0 22 11 38 24 15 13 44 27 63 31 19 4 46 16 59 26
13 11 32 19 42 19 27 0 32 15 35 112 l4 88 -38 1 c-31 0 -34 2 -15 9 12 5 24
18 28 29 8 28 23 27 27 -1 3 -23 13 -25 54 -13 27 8 45 -37 41 -105 -3 -56 18
-63 72 -26 20 14 49 26 62 26 14 0 34 9 44 20 12 13 31 20 54 20 48 0 69 13
52 33 -14 18 -9 22 42 31 55 10 48 40 -10 44 -34 3 -44 -1 -53 -17 -7 -14 -21
-21 -40 -21 -37 0 -41 26 -6 41 26 12 25 33 0 43 -26 10 -53 -13 -64 -54 -13
-47 -24 -51 -38 -12 -5 15 -13 35 -17 45 -5 11 -3 17 7 17 32 0 48 23 35 50
-18 36 -120 38 -151 3z m-333 -387 c2 -11 -51 -31 -60 -22 -3 3 -3 12 1 21 6
17 55 18 59 1z m-429 -318 c7 -12 6 -21 -3 -32 -18 -22 -31 -11 -31 25 0 32
16 35 34 7z m-374 -123 c0 -22 -88 -105 -110 -105 -50 0 -16 60 46 80 18 6 35
17 38 25 7 20 26 19 26 0z m118 -38 c22 -17 13 -28 -21 -25 -18 1 -38 -2 -45
-6 -15 -9 -42 10 -42 30 0 23 78 24 108 1z m-268 -105 c0 -27 -48 -92 -68 -92
-5 0 -12 -10 -15 -22 -5 -18 -8 -19 -21 -9 -18 15 -12 31 10 31 8 0 14 7 14
15 0 8 9 22 19 32 11 10 22 30 26 46 9 36 35 36 35 -1z m-846 -80 c-1 -7 -2
-23 -2 -36 -2 -21 -36 -46 -47 -34 -16 18 -13 49 7 67 23 22 44 23 42 3z m326
-67 c0 -52 -60 -116 -74 -79 -7 19 1 34 19 34 7 0 17 15 20 33 12 54 35 62 35
12z m-150 -94 c0 -28 -25 -44 -59 -36 l-30 6 27 24 c33 30 62 32 62 6z m-250
-175 c0 -16 -21 -26 -56 -26 -32 0 -30 16 4 28 39 15 52 14 52 -2z"/>
<path d="M5863 6438 c-6 -7 -12 -22 -14 -33 -3 -12 -16 -24 -37 -30 -53 -15
-31 -30 47 -30 62 0 74 -3 89 -22 23 -29 97 -25 119 7 13 18 23 21 62 18 l46
-3 3 48 c2 33 -1 47 -10 48 -148 13 -213 7 -199 -19 13 -26 2 -42 -29 -42 -25
0 -29 4 -32 32 -3 35 -27 48 -45 26z"/>
<path d="M19375 6257 c-11 -7 -21 -13 -23 -13 -1 -1 1 -19 6 -42 l9 -40 -38 5
c-29 4 -44 0 -65 -16 -15 -11 -37 -21 -49 -21 -12 0 -28 -7 -35 -15 -7 -8 -23
-15 -35 -15 -12 0 -33 -8 -46 -19 -13 -10 -33 -20 -44 -22 -22 -5 -36 -232
-25 -414 7 -113 43 -142 71 -57 6 21 15 42 20 47 4 6 11 31 15 55 4 25 12 51
17 59 6 7 16 22 22 34 13 27 27 30 50 13 26 -19 24 -87 -4 -123 -12 -14 -21
-39 -21 -54 0 -18 -8 -34 -20 -41 -11 -7 -20 -24 -20 -38 0 -14 -6 -35 -14
-46 -9 -12 -11 -26 -6 -34 20 -32 -16 -54 -40 -25 -9 10 -22 14 -39 10 -57
-11 -120 76 -121 168 0 49 -5 47 -77 -23 -47 -45 -64 -69 -69 -97 -4 -21 -14
-43 -22 -49 -8 -6 -22 -26 -31 -45 -12 -25 -27 -37 -56 -47 -47 -15 -61 -3
-72 63 -6 36 -7 38 -14 15 -11 -38 -10 -347 1 -414 11 -70 -6 -116 -43 -116
-58 1 -66 33 -66 262 0 106 0 215 0 241 l-1 49 -30 -30 c-16 -17 -30 -39 -30
-49 0 -10 -9 -24 -20 -31 -11 -7 -20 -18 -20 -25 -1 -18 -33 -54 -57 -61 -12
-4 -27 -13 -33 -21 -22 -27 -130 3 -130 36 0 14 -12 11 -39 -10 -19 -14 -22
-22 -13 -37 10 -18 -43 -84 -68 -84 -5 0 -22 -11 -38 -25 -24 -20 -42 -25 -97
-27 -69 -3 -69 -3 -101 49 -11 17 -13 16 -23 -9 -6 -16 -15 -28 -21 -28 -5 0
-12 -11 -16 -25 -6 -26 -76 -75 -107 -75 -31 0 -72 69 -73 122 0 26 -3 51 -7
55 -10 9 -54 -34 -60 -60 -3 -12 -19 -62 -36 -112 -17 -49 -31 -99 -31 -110 0
-30 -19 -45 -56 -45 -37 0 -59 22 -49 47 15 38 15 124 -1 130 -29 11 -64 -25
-64 -66 0 -21 -6 -44 -14 -50 -8 -7 -17 -27 -20 -46 -4 -21 -14 -36 -26 -40
-10 -3 -22 -15 -25 -25 -13 -41 -112 -34 -135 10 -15 28 -48 25 -62 -5 -6 -14
-15 -25 -20 -25 -4 0 -8 -9 -8 -19 0 -11 -11 -33 -25 -49 -14 -17 -25 -33 -25
-37 0 -4 -10 -15 -21 -24 l-22 -17 25 -27 c14 -15 32 -27 41 -27 9 0 21 -8 27
-17 10 -17 12 -16 26 5 13 17 26 22 63 22 36 0 49 5 59 21 12 19 20 21 78 16
59 -4 64 -3 80 20 15 24 20 25 77 20 60 -5 61 -5 96 33 20 21 53 45 73 53 24
10 37 23 40 38 4 31 26 36 30 7 4 -33 73 -40 83 -8 4 11 18 32 31 46 40 39 30
69 -23 67 -44 -2 -61 18 -27 31 58 22 112 -14 98 -68 -12 -49 88 -116 103 -69
3 7 -10 16 -29 21 -51 13 -49 58 4 54 29 -2 38 1 43 18 3 11 15 20 26 20 11 0
41 11 68 24 28 14 57 23 69 19 17 -4 24 2 36 31 18 42 48 48 89 16 14 -11 32
-20 40 -20 8 0 21 -10 29 -22 18 -27 48 -18 48 14 0 28 47 101 60 93 19 -11
23 -112 6 -146 -18 -36 -21 -59 -7 -59 28 0 43 18 57 66 15 51 16 53 39 42 25
-11 28 -18 40 -76 5 -24 14 -36 33 -43 15 -5 35 -14 46 -20 28 -16 78 37 85
91 7 51 22 56 34 10 12 -51 30 -66 51 -45 18 18 21 51 6 60 -30 18 -6 83 30
81 21 -1 25 4 28 29 3 37 22 85 32 85 4 0 10 13 13 29 4 19 18 36 42 50 28 16
35 26 30 40 -8 27 9 35 100 43 44 4 91 10 105 12 14 2 27 5 30 5 3 1 24 19 47
40 37 35 41 44 37 73 -7 37 24 87 44 74 27 -17 45 -68 28 -78 -18 -10 -22 -38
-4 -38 22 0 68 63 68 94 1 17 7 42 15 56 8 14 14 35 15 48 0 13 7 37 16 54 12
22 16 58 16 122 l0 90 -53 48 c-30 26 -59 48 -66 48 -11 0 -39 39 -31 44 13
10 141 -12 148 -25 18 -32 48 -64 55 -57 24 23 -105 158 -152 158 -50 0 -39
17 14 23 27 3 52 12 59 22 7 9 25 20 40 24 41 11 41 29 0 46 -44 19 -46 33 -6
46 38 14 40 39 3 38 -16 0 -37 -6 -48 -12z m-58 -394 c43 -37 53 -51 48 -67
-4 -12 -6 -53 -5 -91 2 -91 -11 -125 -46 -125 -24 0 -26 2 -20 32 22 108 19
165 -8 212 -15 25 -32 46 -39 46 -26 0 -43 19 -27 30 26 17 40 11 97 -37z
m-1457 -906 c0 -16 -9 -26 -30 -34 -35 -13 -40 -1 -14 35 20 29 44 28 44 -1z
m-225 -107 c0 -9 -11 -16 -27 -18 -23 -3 -28 1 -28 18 0 17 5 21 28 18 16 -2
27 -9 27 -18z m-131 1 c12 -19 -18 -71 -41 -71 -14 0 -23 6 -23 15 0 8 5 15
10 15 6 0 16 11 22 25 12 26 23 31 32 16z"/>
<path d="M17483 6226 c-37 -35 -39 -41 -17 -50 29 -11 76 22 72 51 -4 36 -17
36 -55 -1z"/>
<path d="M6525 6200 c-62 -11 0 -67 71 -62 46 3 72 3 189 2 170 -1 245 10 245
36 0 23 -3 24 -77 25 -270 4 -402 4 -428 -1z"/>
<path d="M16952 6198 c-18 -18 -15 -48 6 -49 9 -1 24 -2 32 -3 8 -2 69 -3 135
-4 122 -2 165 -12 135 -32 -8 -5 -27 -10 -42 -10 -22 0 -28 -5 -28 -22 0 -21
2 -21 106 -15 58 4 110 10 115 13 16 9 -12 36 -32 31 -27 -7 -46 19 -21 28 11
3 24 5 28 4 31 -5 66 33 47 52 -15 15 -467 21 -481 7z"/>
<path d="M19463 6094 c-20 -9 1 -59 26 -62 20 -3 22 0 19 30 -3 32 -18 43 -45
32z"/>
<path d="M16300 5745 c-16 -20 -4 -35 29 -35 39 0 59 25 32 39 -27 15 -46 14
-61 -4z"/>
<path d="M18715 5690 c-3 -6 -4 -18 -1 -28 5 -13 -1 -22 -18 -30 -13 -6 -27
-23 -30 -39 -4 -15 -13 -35 -21 -43 -22 -25 -29 -80 -11 -80 20 0 98 84 111
120 6 16 13 32 18 36 11 11 8 49 -5 62 -15 15 -35 16 -43 2z"/>
<path d="M17660 5650 c0 -23 26 -38 41 -23 14 14 0 43 -22 43 -12 0 -19 -7
-19 -20z"/>
<path d="M19477 5603 c-10 -9 -8 -61 2 -67 16 -10 34 23 27 49 -6 25 -16 31
-29 18z"/>
<path d="M8400 5495 c-18 -22 0 -25 115 -23 107 3 134 19 50 30 -90 12 -152 9
-165 -7z"/>
<path d="M15783 5486 c-38 -32 -75 -41 -114 -27 -37 13 -55 6 -38 -15 22 -27
163 -19 220 14 57 32 58 46 2 50 -31 2 -47 -3 -70 -22z"/>
<path d="M13825 5460 c-10 -17 5 -30 33 -30 34 0 57 14 48 29 -9 14 -73 15
-81 1z"/>
<path d="M19393 5445 c-3 -9 -3 -18 0 -22 11 -10 57 7 57 22 0 20 -49 20 -57
0z"/>
<path d="M18820 5128 c0 -28 28 -55 40 -38 5 8 9 22 7 30 -3 19 -47 26 -47 8z"/>
<path d="M17115 4950 c-11 -98 18 -113 70 -36 28 42 27 66 -3 66 -11 0 -25 7
-32 15 -21 26 -28 17 -35 -45z"/>
<path d="M18832 4988 c-16 -16 -15 -45 2 -51 15 -6 36 11 36 29 0 21 -25 35
-38 22z"/>
<path d="M17870 4845 c0 -8 11 -17 25 -21 14 -3 25 -12 25 -20 0 -8 7 -14 15
-14 21 0 19 15 -9 44 -26 29 -56 34 -56 11z"/>
<path d="M18780 4829 c-9 -21 -10 -33 -2 -41 20 -20 42 -1 42 37 0 44 -23 47
-40 4z"/>
<path d="M16833 4602 c-10 -11 -28 -25 -41 -31 -17 -9 -21 -17 -16 -36 6 -25
-9 -35 -21 -15 -10 16 -47 12 -68 -7 -29 -27 -155 -22 -177 7 -23 30 -90 40
-90 13 0 -12 -7 -26 -15 -33 -8 -7 -15 -23 -15 -35 0 -13 -6 -26 -12 -28 -7
-3 -3 -6 9 -6 12 -1 28 -10 36 -21 12 -17 151 -27 304 -20 6 0 15 9 18 21 6
17 12 20 36 15 21 -4 31 -1 35 9 4 8 15 15 25 15 30 0 36 30 9 50 -27 20 -19
40 14 40 15 0 26 -7 29 -19 6 -24 74 -58 88 -44 6 6 5 14 -6 23 -8 7 -15 21
-15 31 0 15 -7 19 -34 19 -28 0 -36 5 -46 30 -17 40 -25 44 -47 22z"/>
<path d="M16294 4496 c-9 -24 3 -46 26 -46 17 0 21 5 18 27 -3 31 -34 44 -44
19z"/>
</g>
</svg>
